<?xml version="1.0" encoding="utf-8"?>
<!-- Generator: Adobe Illustrator 24.1.3, SVG Export Plug-In . SVG Version: 6.00 Build 0)  -->
<svg version="1.1" id="Layer_1" xmlns="http://www.w3.org/2000/svg" xmlns:xlink="http://www.w3.org/1999/xlink" x="0px" y="0px"
	 viewBox="0 0 576 576" style="enable-background:new 0 0 576 576;" xml:space="preserve">
<style type="text/css">
	.st0{display:none;fill:#231F20;}
	.st1{fill:#231F20;}
</style>
<path class="st0" d="M364.4,178.7l-49.9-13.8c0.1-1.2,0.1-2.5,0-3.8l-0.6-8.7c-0.6-9.1-7.2-17.4-15.7-19.8l-20.9-5.8
	c-8.5-2.4-18.5,1.4-23.6,8.9l-5,7.2c-0.3,0.4-0.5,0.7-0.7,1c-0.6,0.8-1.1,1.5-1.4,2.2l-49.7-13.7c-7.8-2.1-15.8,2.4-17.9,10.1
	c-2.1,7.7,2.4,15.7,10.1,17.8l126,34.8H192.3l31.2,184.3h104.1l29.3-172.8c7.6,2,15.5-2.5,17.6-10.1
	C376.6,188.8,372.1,180.8,364.4,178.7z M253.7,148c0.2-0.3,0.5-0.7,0.7-1l5-7.2c3.5-5,10.4-7.7,16-6.1l20.9,5.8
	c5.6,1.6,10.2,7.4,10.6,13.5l0.6,8.7c0,0.4,0,0.8,0,1.3L253.7,148C253.6,148.1,253.6,148,253.7,148z M321.5,372.4h-92.1l-28.8-170.1
	h138.1l11.1,3L321.5,372.4z M367.7,194.6c-1.1,4-5.2,6.3-9.2,5.2l-167.6-46.3c-4-1.1-6.3-5.2-5.2-9.2s5.2-6.3,9.2-5.2l167.6,46.3
	C366.5,186.5,368.8,190.6,367.7,194.6z M315.1,234.4L303,353.3c-0.1,1.8-1.6,3.1-3.4,3.1c-0.1,0-0.2,0-0.4,0
	c-1.9-0.2-3.3-1.9-3.1-3.8l12.1-118.9c0.2-1.9,1.9-3.3,3.8-3.1C313.9,230.8,315.3,232.5,315.1,234.4z M254.8,352.6
	c0.2,1.9-1.2,3.6-3.1,3.8c0,0-0.1,0-0.3,0c-1.8,0-3.3-1.3-3.5-3.1l-12.1-118.9c-0.2-1.9,1.2-3.6,3.1-3.8c1.9-0.2,3.6,1.2,3.8,3.1
	L254.8,352.6z M279,232.4v121.4c0,1.9-1.6,3.5-3.5,3.5c-1.9,0-3.5-1.6-3.5-3.5V232.4c0-1.9,1.6-3.5,3.5-3.5
	C277.4,228.9,279,230.5,279,232.4z"/>
<path class="st1" d="M415.8,273.2V392c0,15.9-12.9,28.8-28.8,28.8H163c-7.3,0-13.2-5.9-13.2-13.2V178c0-7.3,5.9-13.2,13.2-13.2
	h147.7c1.9,0,3.5,1.6,3.5,3.5s-1.6,3.5-3.5,3.5H163c-3.4,0-6.2,2.8-6.2,6.2v229.5c0,3.4,2.8,6.2,6.2,6.2H387
	c12,0,21.8-9.8,21.8-21.8V273.2c0-1.9,1.6-3.5,3.5-3.5S415.8,271.3,415.8,273.2z M426.2,202.2c0,6.7-2.6,13.1-7.4,17.9l-6,6l0,0
	L284.3,354.5l-68.2,22.4c-0.9,0.3-1.9,0.5-2.9,0.5c-2.4,0-4.7-0.9-6.5-2.7c-2.5-2.5-3.3-6-2.2-9.3l22.4-68.2l0.3-0.3l0,0l9.5-9.5
	l118.7-118.7l0,0l6-6c4.8-4.8,11.1-7.4,17.9-7.4c6.7,0,13.1,2.6,17.9,7.4l21.6,21.6C423.6,189.1,426.2,195.4,426.2,202.2z M400,226
	l-44.6-44.6L240.1,296.8l44.5,44.6L400,226z M277.6,347.2l-43.3-43.3l-21.1,64.3c0,0.1,0,0.1,0.1,0.1L277.6,347.2z M417.2,202.2
	c0-4.3-1.7-8.4-4.8-11.5l-21.6-21.6c-3.1-3.1-7.1-4.7-11.5-4.7c-4.3,0-8.4,1.7-11.5,4.7l-6,6l44.6,44.6l6-6
	C415.5,210.6,417.2,206.5,417.2,202.2z M349.5,208.6l-83.1,83.1c-1.8,1.8-1.8,4.6,0,6.4c0.9,0.9,2,1.3,3.2,1.3s2.3-0.4,3.2-1.3
	l83.1-83.1c1.8-1.8,1.8-4.6,0-6.4C354.1,206.8,351.3,206.8,349.5,208.6z M283.4,315.1c0.9,0.9,2,1.3,3.2,1.3s2.3-0.4,3.2-1.3
	l83.1-83.1c1.8-1.8,1.8-4.6,0-6.4c-1.8-1.8-4.6-1.8-6.4,0l-83.1,83.1C281.6,310.5,281.6,313.3,283.4,315.1z"/>
</svg>
