<?xml version="1.0" encoding="utf-8"?>
<!-- Generator: Adobe Illustrator 24.1.3, SVG Export Plug-In . SVG Version: 6.00 Build 0)  -->
<svg version="1.1" id="Layer_1" xmlns="http://www.w3.org/2000/svg" xmlns:xlink="http://www.w3.org/1999/xlink" x="0px" y="0px"
	 viewBox="0 0 576 576" style="enable-background:new 0 0 576 576;" xml:space="preserve">
<style type="text/css">
	.st0{fill:#2b5865;}
</style>
<path class="st0" d="M179,142.5c-2.1,7.7,2.4,15.7,10.1,17.8l167.6,46.3c7.7,2.1,15.7-2.4,17.8-10.1c2.1-7.7-2.4-15.7-10.1-17.8
	l-49.9-13.8c0.1-1.2,0.1-2.5,0-3.8l-0.6-8.7c-0.6-9.1-7.2-17.4-15.7-19.8l-20.9-5.8c-8.5-2.4-18.5,1.4-23.6,8.9l-5,7.2
	c-0.3,0.4-0.5,0.7-0.7,1c-0.6,0.8-1.1,1.5-1.4,2.2l-49.7-13.7C189.1,130.3,181.1,134.8,179,142.5z M307.5,163l-53.9-14.9
	c0,0,0-0.1,0.1-0.1c0.2-0.3,0.5-0.7,0.7-1l5-7.2c3.5-5,10.4-7.7,16-6.1l20.9,5.8c5.6,1.6,10.2,7.4,10.6,13.5l0.6,8.7
	C307.5,162.1,307.5,162.5,307.5,163z M185.7,144.3c1.1-4,5.2-6.3,9.2-5.2l167.6,46.3c4,1.1,6.3,5.2,5.2,9.2c-1.1,4-5.2,6.3-9.2,5.2
	l-167.6-46.3C186.9,152.4,184.6,148.3,185.7,144.3z"/>
<g>
	<path class="st0" d="M327.6,379.4H223.5l-31.2-184.3h147.5l18.2,4.9L327.6,379.4z M229.4,372.4h92.1l28.3-167.1l-11.1-3H200.6
		L229.4,372.4z"/>
</g>
<g>
	<g>
		<g>
			<path class="st0" d="M299.6,356.4c-0.1,0-0.2,0-0.4,0c-1.9-0.2-3.3-1.9-3.1-3.8l12.1-118.9c0.2-1.9,1.9-3.3,3.8-3.1
				c1.9,0.2,3.3,1.9,3.1,3.8l-12.1,118.9C302.9,355.1,301.4,356.4,299.6,356.4z"/>
		</g>
		<g>
			<path class="st0" d="M251.4,356.4c-1.8,0-3.3-1.3-3.5-3.1l-12.1-118.9c-0.2-1.9,1.2-3.6,3.1-3.8c1.9-0.2,3.6,1.2,3.8,3.1
				l12.1,118.9c0.2,1.9-1.2,3.6-3.1,3.8C251.7,356.4,251.6,356.4,251.4,356.4z"/>
		</g>
	</g>
	<g>
		<path class="st0" d="M275.5,357.3c-1.9,0-3.5-1.6-3.5-3.5V232.4c0-1.9,1.6-3.5,3.5-3.5s3.5,1.6,3.5,3.5v121.4
			C279,355.7,277.4,357.3,275.5,357.3z"/>
	</g>
</g>
</svg>
